<svg id="Layer_1" data-name="Layer 1" xmlns="http://www.w3.org/2000/svg" viewBox="0 0 353 82.03"><defs><style>.cls-1{fill:#84bd00;}.cls-2{fill:#fff;}</style></defs><title>leewallis-full-v2</title><path class="cls-1" d="M399.2,102.55h7.57l-.92,4.6c2.73.16,4.93.19,7.71.19,4.2,0,6.34-.54,6.34-3.19,0-1.81-1.42-3.3-4.33-4.4L411,98c-6.28-2.26-9.39-6.08-9.39-11.39,0-9.9,6.12-14.57,19.32-14.57,2.46,0,14,.12,15.32.12l-2.66,12.66h-7.75l1-4.6c-1.86,0-4.55-.2-6.91-.08-3.55.18-5.76,1.62-5.76,4.14,0,1.68,1,2.91,3.17,3.75l5.18,2c7.25,2.85,9.9,6.67,9.9,11.85a15.06,15.06,0,0,1-4.59,11.32c-3,2.92-7.9,3.65-14.63,3.65s-12.36-.09-16.89-.09Z" transform="translate(-83.22 -72.04)"/><polygon class="cls-1" points="296.05 8.68 300.58 8.68 293 44.66 309.32 44.66 311.13 36.05 306.67 36.05 314.21 0.16 297.87 0.07 296.05 8.68"/><polygon class="cls-1" points="264.39 0.07 262.64 8.67 267.04 8.67 261.28 36.05 257.07 36.05 255.26 44.66 290.34 44.66 293.31 30.49 284.96 30.49 283.61 35.8 273.19 35.8 280.71 0.07 264.39 0.07"/><polygon class="cls-1" points="9.13 0.07 7.38 8.67 11.78 8.67 6.02 36.05 1.81 36.05 0 44.66 35.08 44.66 38.05 30.49 29.7 30.49 28.35 35.8 17.93 35.8 25.45 0.07 9.13 0.07"/><polygon class="cls-1" points="44.66 0.07 42.81 8.67 46.3 8.67 38.71 44.66 70.31 44.66 73.32 30.49 64.9 30.49 63.58 35.8 52.45 35.8 54.52 26.35 67.14 26.35 69.02 17.29 56.33 17.29 58.14 8.93 74.41 8.95 76.27 0.07 44.66 0.07"/><polygon class="cls-1" points="79.92 0.07 78.07 8.67 81.56 8.67 73.97 44.66 105.57 44.66 108.58 30.49 100.16 30.49 98.84 35.8 87.71 35.8 89.78 26.35 102.4 26.35 104.28 17.29 91.59 17.29 93.4 8.93 109.66 8.95 111.53 0.07 79.92 0.07"/><polygon class="cls-1" points="226.64 0.07 224.89 8.67 229.29 8.67 223.53 36.05 219.32 36.05 217.51 44.66 252.59 44.66 255.56 30.49 247.21 30.49 245.86 35.8 235.44 35.8 242.96 0.07 226.64 0.07"/><path class="cls-1" d="M284,96.64c-.78-5.82-1.23-9.45-1.36-10.94-.84,1.82-2.78,5.44-5.7,10.94Zm-10.55,20.07H252.73l26.19-44.6h12l6.08,36h2.85l-1.81,8.61H286.52l-1.77-11.65H272.58l-1.75,3h4.34Z" transform="translate(-83.22 -72.04)"/><path class="cls-1" d="M252.66,72.11l-1.81,8.61H256c-4.27,8.61-10.69,19.42-10.69,19.42v-.06l2.88-13.65-4.21,0c-.45-4.41-1-9.41-1.58-14.29H234C226.63,85.64,221.72,95,219.19,100.2c-.06-4.53-.58-28.09-.58-28.09H204.18l-1.82,8.61h3.95l2.85,36h10.16q12-22.42,15.34-29.32.39,6.4,2.78,29.32H247.6l26-44.6Z" transform="translate(-83.22 -72.04)"/><path class="cls-2" d="M323.77,154.08l1.71-9.71c.21-1.19.47-2.43.79-3.69s.6-2.33.85-3.19.42-1.41.49-1.64h-.16l-8.18,18.23H312.5l-1.8-18.19h-.16c0,.23,0,.77-.07,1.62s-.11,1.9-.22,3.17-.29,2.5-.5,3.69L308,154.08H300.1l4.74-26.92h12.21l1.33,15.53h.16l6.76-15.53h11.78l-4.75,26.92Z" transform="translate(-83.22 -72.04)"/><path class="cls-2" d="M340.37,127.16h23.27l-1.13,6.46H347.87l-.65,3.71h12.52l-1.09,6.18H346.13l-.73,4.11h14.91l-1.14,6.46H335.62Z" transform="translate(-83.22 -72.04)"/><path class="cls-2" d="M390.07,140.62q-2.38,13.45-16.5,13.46H361.91l4.75-26.92h11.66Q392.44,127.16,390.07,140.62Zm-18.37,7h2.85q5.44,0,6.47-5.83l.41-2.35q1-5.82-4.41-5.82h-2.85Z" transform="translate(-83.22 -72.04)"/><path class="cls-2" d="M390.78,154.08l4.75-26.92h8.65l-4.75,26.92Z" transform="translate(-83.22 -72.04)"/><path class="cls-2" d="M421.69,154.08l-.46-3.8H411.8l-1.81,3.8h-8.84l14.57-26.92h10l5.08,26.92Zm-7-9.82h5.83l-1.13-9.59h-.15Z" transform="translate(-83.22 -72.04)"/></svg>