<svg id="Layer_1" data-name="Layer 1" xmlns="http://www.w3.org/2000/svg" viewBox="0 0 353.45 92.48"><defs><style>.cls-1{fill:#84bd00;}.cls-2{font-size:39.73px;fill:#fff;font-family:ArchivoBlack-Regular, Archivo Black;letter-spacing:-0.05em;}</style></defs><title>leewallis-full</title><path class="cls-1" d="M316.14,30.48h7.57l-.92,4.6c2.73.16,4.92.2,7.71.2,4.2,0,6.34-.55,6.34-3.2,0-1.81-1.43-3.3-4.34-4.4l-4.59-1.75c-6.28-2.26-9.39-6.08-9.39-11.39,0-9.9,6.12-14.56,19.32-14.56,2.46,0,14,.11,15.31.11L350.5,12.75h-7.75l1-4.6c-1.85,0-4.55-.2-6.9-.08-3.56.18-5.76,1.62-5.76,4.14,0,1.68,1,2.91,3.17,3.76l5.18,2c7.25,2.85,9.9,6.67,9.9,11.85a15.06,15.06,0,0,1-4.59,11.32c-3.05,2.92-7.9,3.65-14.63,3.65s-12.36-.09-16.9-.09Z" transform="translate(-0.15 0.02)"/><polygon class="cls-1" points="296.05 8.68 300.58 8.68 293 44.66 309.32 44.66 311.13 36.05 306.67 36.05 314.21 0.16 297.87 0.07 296.05 8.68"/><polygon class="cls-1" points="264.39 0.07 262.64 8.67 267.04 8.67 261.28 36.05 257.07 36.05 255.26 44.66 290.34 44.66 293.31 30.49 284.96 30.49 283.61 35.8 273.19 35.8 280.71 0.07 264.39 0.07"/><polygon class="cls-1" points="9.13 0.07 7.38 8.67 11.78 8.67 6.02 36.05 1.81 36.05 0 44.66 35.08 44.66 38.05 30.49 29.7 30.49 28.35 35.8 17.93 35.8 25.45 0.07 9.13 0.07"/><polygon class="cls-1" points="44.66 0.07 42.81 8.67 46.3 8.67 38.71 44.66 70.31 44.66 73.32 30.49 64.9 30.49 63.58 35.8 52.45 35.8 54.52 26.35 67.14 26.35 69.02 17.29 56.33 17.29 58.14 8.93 74.41 8.95 76.27 0.07 44.66 0.07"/><polygon class="cls-1" points="79.92 0.07 78.07 8.67 81.56 8.67 73.97 44.66 105.57 44.66 108.58 30.49 100.16 30.49 98.84 35.8 87.71 35.8 89.78 26.35 102.4 26.35 104.28 17.29 91.59 17.29 93.4 8.93 109.66 8.95 111.53 0.07 79.92 0.07"/><polygon class="cls-1" points="226.64 0.07 224.89 8.67 229.29 8.67 223.53 36.05 219.32 36.05 217.51 44.66 252.59 44.66 255.56 30.49 247.21 30.49 245.86 35.8 235.44 35.8 242.96 0.07 226.64 0.07"/><path class="cls-1" d="M200.91,24.57c-.78-5.82-1.23-9.45-1.36-10.93-.84,1.81-2.78,5.43-5.7,10.93ZM190.36,44.64H169.67L195.86,0h12L214,36h2.85L215,44.64H203.46L201.68,33H189.52l-1.75,3h4.33Z" transform="translate(-0.15 0.02)"/><path class="cls-1" d="M169.6,0l-1.81,8.61h5.11c-4.27,8.61-10.69,19.42-10.69,19.42V28l2.88-13.66-4.21,0c-.46-4.41-1-9.41-1.58-14.29h-8.41c-7.32,13.53-12.24,22.85-14.76,28.1-.07-4.54-.58-28.1-.58-28.1H121.11L119.3,8.65h4l2.85,36h10.16q12-22.42,15.34-29.32c.26,4.27,1.16,14,2.78,29.32h10.16l26-44.6Z" transform="translate(-0.15 0.02)"/><text class="cls-2" transform="matrix(0.98, 0, -0.17, 0.98, 214.53, 82.03)">MEDIA</text></svg>