<?xml version="1.0" encoding="utf-8"?>
<svg version="1.1" id="Layer_1" xmlns="http://www.w3.org/2000/svg" xmlns:xlink="http://www.w3.org/1999/xlink" x="0px" y="0px"
	 viewBox="0 0 208 27" style="enable-background:new 0 0 208 27;" xml:space="preserve">
<style type="text/css">
	.st0{fill:#84BD00;}
	.st1{clip-path:url(#SVGID_2_);fill:#84BD00;}
	.st2{clip-path:url(#SVGID_4_);fill:#84BD00;}
</style>
<polygon class="st0" points="5.4,0.4 4.3,5.4 6.9,5.4 3.5,21.5 1.1,21.5 0,26.6 20.6,26.6 22.4,18.3 17.5,18.3 16.7,21.4 10.6,21.4 
	15,0.4 "/>
<polygon class="st0" points="133.4,0.4 132.3,5.4 134.9,5.4 131.5,21.5 129.1,21.5 128,26.6 148.6,26.6 150.4,18.3 145.5,18.3 
	144.7,21.4 138.6,21.4 143,0.4 "/>
<polygon class="st0" points="155.6,0.4 154.6,5.4 157.1,5.4 153.8,21.5 151.3,21.5 150.2,26.6 170.9,26.6 172.6,18.3 167.7,18.3 
	166.9,21.4 160.8,21.4 165.2,0.4 "/>
<polygon class="st0" points="26.3,0.4 25.2,5.4 27.2,5.4 22.8,26.6 41.4,26.6 43.1,18.3 38.2,18.3 37.4,21.4 30.9,21.4 32.1,15.8 
	39.5,15.8 40.6,10.5 33.2,10.5 34.2,5.6 43.8,5.6 44.9,0.4 "/>
<polygon class="st0" points="47,0.4 45.9,5.4 48,5.4 43.5,26.6 62.1,26.6 63.9,18.3 58.9,18.3 58.2,21.4 51.6,21.4 52.8,15.8 
	60.3,15.8 61.4,10.5 53.9,10.5 55,5.6 64.5,5.6 65.6,0.4 "/>
<g>
	<defs>
		<rect id="SVGID_1_" x="0" y="0.3" width="207.7" height="26.4"/>
	</defs>
	<clipPath id="SVGID_2_">
		<use xlink:href="#SVGID_1_"  style="overflow:visible;"/>
	</clipPath>
	<path class="st1" d="M118.1,14.8c-0.5-3.4-0.7-5.6-0.8-6.4c-0.5,1.1-1.6,3.2-3.4,6.4H118.1z M111.9,26.6H99.8l15.4-26.2h7.1
		l3.6,21.2h1.7l-1.1,5.1h-6.8l-1-6.9h-7.2l-1,1.8h2.6L111.9,26.6z"/>
</g>
<polygon class="st0" points="174.2,5.4 176.9,5.4 172.4,26.6 182,26.6 183.1,21.5 180.5,21.5 184.9,0.4 175.3,0.4 "/>
<g>
	<defs>
		<rect id="SVGID_3_" x="0" y="0.3" width="207.7" height="26.4"/>
	</defs>
	<clipPath id="SVGID_4_">
		<use xlink:href="#SVGID_3_"  style="overflow:visible;"/>
	</clipPath>
	<path class="st2" d="M186,18.3h4.5l-0.5,2.7c1.6,0.1,2.9,0.1,4.5,0.1c2.5,0,3.7-0.3,3.7-1.9c0-1.1-0.8-1.9-2.6-2.6l-2.7-1
		c-3.7-1.3-5.5-3.6-5.5-6.7c0-5.8,3.6-8.6,11.4-8.6c1.4,0,8.3,0.1,9,0.1l-1.6,7.5h-4.6l0.6-2.7c-1.1,0-2.7-0.1-4.1,0
		c-2.1,0.1-3.4,1-3.4,2.4c0,1,0.6,1.7,1.9,2.2l3,1.2c4.3,1.7,5.8,3.9,5.8,7c0,2.7-0.9,5-2.7,6.7c-1.8,1.7-4.6,2.1-8.6,2.1
		c-3.9,0-7.3-0.1-9.9-0.1L186,18.3z"/>
	<path class="st2" d="M99.7,0.4l-1.1,5.1h3c-2.5,5.1-6.3,11.4-6.3,11.4s0,0,0,0l1.7-8l-2.5,0c-0.3-2.6-0.6-5.5-0.9-8.4h-5
		c-4.3,8-7.2,13.4-8.7,16.5c0-2.7-0.3-16.5-0.3-16.5h-8.5l-1.1,5.1h2.3l1.7,21.2h6c4.7-8.8,7.7-14.5,9-17.3
		c0.2,2.5,0.7,8.3,1.6,17.3h6L112,0.4H99.7z"/>
</g>
<g>
</g>
<g>
</g>
<g>
</g>
<g>
</g>
<g>
</g>
<g>
</g>
</svg>
